# xmcd
#
# Track frame offsets:
#	150
#	11099
#	23748
#	40772
#	56597
#	68355
#	81561
#	95938
#	109061
#	122574
#	135864
#	147537
#	158681
#	169434
#	182304
#	191581
#	205596
#	215681
#	225822
#	240560
#	258058
#	268003
#	279259
#	292800
#	307065
#	317373
#	329632
#	344315
#
# Disc length: 4751 seconds
#
# Revision: 1
# Processed by: cddbd v1.5.2PL0 Copyright (c) Steve Scherf et al.
# Submitted via: audiograbber 1.83.01
#
DISCID=87128d1c
DTITLE=Vernon Oxford - Keeper Of The Flame CD4
DYEAR=1995
DGENRE=Country
TTITLE0=There's A Better Place  1978
TTITLE1=Joanna  1978
TTITLE2=Who Were Ann And Louis Adams  1978
TTITLE3=Mommy Do You Think I'll Get To Heaven  1978
TTITLE4=State Of Depression  1978
TTITLE5=Woman  1978
TTITLE6=Maggie The Baby Is Crying  1978
TTITLE7=If I Had My Wife To Love Over  1978
TTITLE8=I'll Forgive You For The Last Time  1978
TTITLE9=If There Was No Country Music  1978
TTITLE10=Cattle Call  1978
TTITLE11=I Love To Sing  1980
TTITLE12=Walkin' My Blues Away  1980
TTITLE13=If Kisses Could Talk  1980
TTITLE14=Gonna Ease My Worried Mind  1980
TTITLE15=No One Else Is Listening  1980
TTITLE16=Turn The Record Over  1980
TTITLE17=I Think Living Is Sweet  1980
TTITLE18=A Blanket Of Stars  1980
TTITLE19=The Great Stoneface  1980
TTITLE20=Rainy Day  1980
TTITLE21=Somebody To Love Me  1980
TTITLE22=Let Your Light Shine  1980
TTITLE23=Bringing Mary Home 1981
TTITLE24=Bad Moon Risin'  1979
TTITLE25=Letters Have No Arms 1979
TTITLE26=Mother's Not Dead, She's Only Sleeping  1980
TTITLE27=Honky Tonk Troubles  1981
EXTD=
EXTT0=
EXTT1=
EXTT2=
EXTT3=
EXTT4=
EXTT5=
EXTT6=
EXTT7=
EXTT8=
EXTT9=
EXTT10=
EXTT11=
EXTT12=
EXTT13=
EXTT14=
EXTT15=
EXTT16=
EXTT17=
EXTT18=
EXTT19=
EXTT20=
EXTT21=
EXTT22=
EXTT23=
EXTT24=
EXTT25=
EXTT26=
EXTT27=
PLAYORDER=
